<svg width="205" height="41" viewBox="0 0 205 41" fill="none" xmlns="http://www.w3.org/2000/svg">
  <path d="M10.2098 37.3056C10.236 38.0659 10.4458 38.7476 10.839 39.3505C11.2585 39.9273 11.8746 40.2026 12.6873 40.1764H5.25488C6.0676 40.2026 6.68369 39.9273 7.10316 39.3505C7.52262 38.7476 7.73236 38.0659 7.73236 37.3056V15.441C7.73236 14.6807 7.52262 14.0122 7.10316 13.4354C6.70991 12.8324 6.09382 12.5309 5.25488 12.5309H20.4736C21.8107 12.5309 23.056 12.7538 24.2095 13.1994C25.3631 13.6451 26.3593 14.2743 27.1982 15.087C28.0372 15.8997 28.6926 16.8698 29.1645 17.9971C29.6364 19.1244 29.8723 20.3697 29.8723 21.733C29.8723 23.0962 29.6364 24.3546 29.1645 25.5082C28.6926 26.6355 28.0372 27.6055 27.1982 28.4182C26.3593 29.2047 25.3631 29.8208 24.2095 30.2665C23.056 30.7122 21.8107 30.935 20.4736 30.935H10.2098V37.3056ZM10.2098 30.4631H18.5467C19.8051 30.4631 20.9587 30.2534 22.0073 29.8339C23.0822 29.3882 23.9998 28.7852 24.7601 28.0249C25.5204 27.2384 26.1102 26.3078 26.5297 25.2329C26.9492 24.158 27.1589 22.9914 27.1589 21.733C27.1589 20.4746 26.9492 19.321 26.5297 18.2724C26.1102 17.1975 25.5204 16.2668 24.7601 15.4803C23.9998 14.6938 23.0822 14.0908 22.0073 13.6713C20.9587 13.2257 19.8051 13.0028 18.5467 13.0028H12.2547C11.4158 13.0028 10.8652 13.2257 10.6031 13.6713C10.3409 14.0908 10.2098 14.6545 10.2098 15.3623V30.4631Z" fill="#F7F7F2"/>
  <path d="M36.6623 37.345C36.6623 38.1052 36.8589 38.7869 37.2522 39.3899C37.6454 39.9666 38.2615 40.255 39.1005 40.255H31.904C32.7429 40.255 33.359 39.9666 33.7523 39.3899C34.1717 38.7869 34.3815 38.1052 34.3815 37.345V11.5478C34.3815 11.0759 34.2504 10.6433 33.9882 10.2501C33.7523 9.8306 33.3721 9.62086 32.8478 9.62086L36.6623 9.07031V37.345Z" fill="#F7F7F2"/>
  <path d="M70.5678 20.5925C68.4705 20.5925 66.7402 21.0906 65.3769 22.0869C64.0399 23.0831 62.8863 24.3284 61.9163 25.8228C60.9725 27.3171 60.1074 28.9425 59.3209 30.699C58.5606 32.4293 57.7086 34.0417 56.7648 35.536C55.821 37.0304 54.6936 38.2757 53.3828 39.2719C52.072 40.2681 50.3941 40.7662 48.3492 40.7662C47.4841 40.7662 46.6189 40.6614 45.7538 40.4516C44.9148 40.2419 44.1677 39.9142 43.5122 39.4685C42.8568 39.0228 42.3194 38.4461 41.8999 37.7382C41.5067 37.0304 41.31 36.1783 41.31 35.1821C41.31 34.081 41.5984 33.1372 42.1752 32.3507C42.752 31.538 43.5122 30.8957 44.456 30.4238C45.1901 30.0567 46.0421 29.7946 47.0122 29.6373C47.9822 29.4538 48.9522 29.2571 49.9222 29.0474C50.8922 28.8114 51.7967 28.51 52.6356 28.1429C53.4746 27.7759 54.13 27.2253 54.6019 26.4913C54.6805 26.3864 54.7854 26.1898 54.9165 25.9014C55.0738 25.613 55.1524 25.4033 55.1524 25.2722C55.1524 24.5119 54.9951 23.8565 54.6805 23.306C54.3922 22.7292 53.9989 22.2442 53.5008 21.8509C53.0027 21.4577 52.4259 21.1693 51.7705 20.9858C51.1413 20.776 50.4859 20.6712 49.8042 20.6712C49.2013 20.6712 48.5721 20.7367 47.9166 20.8678C47.2612 20.9989 46.632 21.2086 46.029 21.497C45.4523 21.7592 44.9148 22.1 44.4167 22.5195C43.9186 22.9389 43.5122 23.4239 43.1976 23.9745C43.4074 23.8958 43.604 23.8565 43.7875 23.8565C44.207 23.8565 44.5609 24.0138 44.8493 24.3284C45.1639 24.6168 45.3212 24.9707 45.3212 25.3902C45.3212 25.8096 45.1639 26.1767 44.8493 26.4913C44.5609 26.7797 44.207 26.9239 43.7875 26.9239C43.3156 26.9239 42.9355 26.7665 42.6471 26.452C42.3849 26.1111 42.2538 25.7179 42.2538 25.2722C42.2538 25.1936 42.2801 25.0494 42.3325 24.8396C42.6471 24.0531 43.0666 23.3846 43.5909 22.8341C44.1414 22.2573 44.7575 21.7854 45.4392 21.4184C46.1208 21.0513 46.8418 20.776 47.602 20.5925C48.3885 20.409 49.1881 20.3173 50.0009 20.3173C50.7874 20.3173 51.6132 20.4352 52.4783 20.6712C53.3697 20.8809 54.1693 21.2217 54.8772 21.6936C55.6112 22.1393 56.2142 22.703 56.6861 23.3846C57.1842 24.0662 57.4333 24.879 57.4333 25.8228V33.845C58.246 32.3507 59.0063 30.8301 59.7141 29.2833C60.4482 27.7366 61.3133 26.2684 62.3096 24.879C62.3358 24.6954 62.3489 24.525 62.3489 24.3677C62.3489 24.1842 62.3489 24.0007 62.3489 23.8172C62.3489 23.555 62.3358 23.2666 62.3096 22.952C62.2834 22.6374 62.2178 22.349 62.113 22.0869C62.0081 21.7985 61.8508 21.5625 61.6411 21.379C61.4313 21.1955 61.1429 21.1038 60.7759 21.1038L64.5511 20.5532V22.4408C65.4949 21.6805 66.5042 21.13 67.5791 20.7892C68.6802 20.4221 69.8338 20.2386 71.0397 20.2386C71.7738 20.2386 72.5472 20.3304 73.3599 20.5139C74.1726 20.6974 74.9198 20.9989 75.6014 21.4184C76.283 21.8116 76.8467 22.3228 77.2924 22.952C77.7381 23.5812 77.9609 24.3415 77.9609 25.2329V37.3843C77.9609 38.1446 78.1575 38.8262 78.5508 39.4292C78.9703 40.006 79.5995 40.2943 80.4384 40.2943H73.2026C74.0415 40.2943 74.6576 40.006 75.0509 39.4292C75.4703 38.8262 75.6801 38.1446 75.6801 37.3843V25.3509C75.6801 23.7516 75.2082 22.5588 74.2644 21.7723C73.3206 20.9858 72.0884 20.5925 70.5678 20.5925ZM64.5511 37.3843C64.5511 38.1446 64.7477 38.8262 65.141 39.4292C65.5604 40.006 66.1896 40.2943 67.0286 40.2943H59.8321C60.671 40.2943 61.2871 40.006 61.6804 39.4292C62.0998 38.8262 62.3096 38.1446 62.3096 37.3843V27.7497C62.3096 27.1467 62.362 26.6617 62.4669 26.2947C62.5717 25.9014 62.7159 25.5606 62.8995 25.2722C63.1092 24.9838 63.3451 24.6954 63.6073 24.4071C63.8957 24.1187 64.2103 23.7647 64.5511 23.3453V37.3843ZM47.2874 40.373C47.4972 40.4254 47.72 40.4516 47.956 40.4516C48.1919 40.4516 48.4148 40.4516 48.6245 40.4516C50.014 40.4516 51.233 40.1895 52.2817 39.6651C53.3304 39.1408 54.2873 38.3543 55.1524 37.3056V26.0194C54.8378 26.8583 54.3266 27.4875 53.6188 27.907C52.9371 28.3264 52.1768 28.6541 51.3379 28.8901C50.499 29.126 49.6338 29.3489 48.7425 29.5586C47.8511 29.7421 47.0384 30.0305 46.3043 30.4238C45.5965 30.817 45.0066 31.3676 44.5347 32.0754C44.0628 32.7833 43.8268 33.7795 43.8268 35.0641C43.8268 35.6147 43.8924 36.1783 44.0235 36.7551C44.1808 37.3319 44.3905 37.8693 44.6527 38.3674C44.9411 38.8655 45.3081 39.2981 45.7538 39.6651C46.1994 40.006 46.7107 40.2419 47.2874 40.373ZM59.8714 39.6651C59.0587 40.2681 58.128 40.5696 57.0794 40.5696C56.5288 40.5696 56.07 40.4385 55.703 40.1764C55.336 39.888 55.1524 39.4423 55.1524 38.8393C55.1524 38.7345 55.2573 38.5378 55.467 38.2494C55.6768 37.9348 55.9127 37.6071 56.1749 37.2663C56.4371 36.8993 56.6861 36.5585 56.9221 36.2439C57.1842 35.9031 57.3546 35.654 57.4333 35.4967C57.4333 35.8113 57.4202 36.1259 57.394 36.4405C57.3677 36.7551 57.3546 37.0697 57.3546 37.3843C57.3546 37.5678 57.3546 37.8169 57.3546 38.1315C57.3809 38.4199 57.4333 38.7082 57.5119 38.9966C57.5906 39.2588 57.7086 39.4947 57.8659 39.7045C58.0232 39.888 58.246 39.9797 58.5344 39.9797C58.7441 39.9797 58.967 39.9535 59.2029 39.9011C59.4389 39.8224 59.6617 39.7438 59.8714 39.6651Z" fill="#F7F7F2"/>
  <path d="M93.5957 39.1539C92.914 39.5472 92.2062 39.8749 91.4721 40.137C90.738 40.373 89.9909 40.491 89.2306 40.491C87.5527 40.491 86.3205 40.006 85.534 39.0359C84.7475 38.0397 84.3543 36.742 84.3543 35.1428V20.7105H81.5622V20.4352C82.7158 20.4352 83.594 20.2648 84.197 19.924C84.8 19.5832 85.2457 19.1244 85.534 18.5476C85.8224 17.9709 86.0059 17.3023 86.0846 16.5421C86.1895 15.7556 86.3205 14.9166 86.4778 14.0253H86.6351V20.4352H91.9047V20.7105H86.6351V36.0079C86.6351 37.1615 86.8842 38.1184 87.3823 38.8786C87.9066 39.6389 88.798 40.0191 90.0564 40.0191C90.6594 40.0191 91.2362 39.9273 91.7867 39.7438C92.3635 39.5341 92.914 39.2719 93.4384 38.9573L93.5957 39.1539Z" fill="#F7F7F2"/>
  <path d="M108.54 36.991C107.78 38.2757 106.692 39.2195 105.276 39.8224C103.887 40.3992 102.471 40.6876 101.029 40.6876C100.19 40.6876 99.3908 40.5958 98.6305 40.4123C97.8702 40.2288 97.1886 39.9404 96.5856 39.5472C96.0088 39.1539 95.55 38.6427 95.2092 38.0135C94.8684 37.3581 94.698 36.5716 94.698 35.654C94.698 34.4218 94.947 33.4387 95.4452 32.7046C95.9695 31.9443 96.6249 31.3414 97.4114 30.8957C98.2241 30.4238 99.1286 30.0567 100.125 29.7946C101.121 29.5324 102.104 29.2702 103.074 29.0081C104.07 28.7459 105.001 28.4313 105.866 28.0643C106.758 27.6972 107.465 27.186 107.99 26.5306C108.121 26.3471 108.239 26.1505 108.344 25.9407C108.449 25.7048 108.501 25.4688 108.501 25.2329C108.501 24.4988 108.344 23.8565 108.029 23.306C107.741 22.7292 107.334 22.2442 106.81 21.8509C106.312 21.4577 105.748 21.1562 105.119 20.9465C104.49 20.7367 103.834 20.6319 103.153 20.6319C101.894 20.6319 100.636 20.894 99.3777 21.4184C98.1193 21.9165 97.1755 22.7554 96.5463 23.9352C96.756 23.8565 96.9657 23.8172 97.1755 23.8172C97.5949 23.8172 97.9489 23.9745 98.2372 24.2891C98.5518 24.6037 98.7091 24.9576 98.7091 25.3509C98.7091 25.7703 98.5518 26.1374 98.2372 26.452C97.9489 26.7403 97.5949 26.8845 97.1755 26.8845C96.7298 26.8845 96.3627 26.7141 96.0744 26.3733C95.786 26.0325 95.6418 25.6392 95.6418 25.1936C95.6418 25.1149 95.668 24.9707 95.7204 24.761C96.0088 24.0007 96.4152 23.3453 96.9395 22.7947C97.4901 22.218 98.1062 21.7461 98.7878 21.379C99.4956 21.012 100.243 20.7367 101.029 20.5532C101.816 20.3697 102.589 20.2779 103.349 20.2779C104.136 20.2779 104.962 20.3959 105.827 20.6319C106.718 20.8416 107.531 21.1824 108.265 21.6543C108.999 22.1 109.602 22.6636 110.074 23.3453C110.546 24.0269 110.782 24.8396 110.782 25.7834V37.5023C110.782 37.712 110.782 37.9611 110.782 38.2494C110.782 38.5116 110.808 38.7738 110.861 39.0359C110.939 39.2719 111.044 39.4816 111.175 39.6651C111.332 39.8224 111.568 39.9011 111.883 39.9011C112.329 39.9011 112.774 39.8093 113.22 39.6258C112.407 40.2288 111.49 40.5303 110.467 40.5303C109.707 40.5303 109.196 40.3206 108.934 39.9011C108.671 39.4816 108.54 38.918 108.54 38.2101V36.991ZM97.2541 35.4967C97.2541 36.8337 97.6343 37.9611 98.3945 38.8786C99.181 39.7962 100.269 40.255 101.659 40.255C102.497 40.255 103.323 40.137 104.136 39.9011C104.949 39.6389 105.683 39.2981 106.338 38.8786C106.994 38.433 107.518 37.9217 107.911 37.345C108.331 36.742 108.54 36.0997 108.54 35.418V26.098C108.173 26.8321 107.636 27.4089 106.928 27.8283C106.22 28.2478 105.447 28.6017 104.608 28.8901C103.769 29.1785 102.917 29.4669 102.052 29.7552C101.187 30.0174 100.387 30.3713 99.6529 30.817C98.9451 31.2627 98.3683 31.8526 97.9226 32.5866C97.477 33.3207 97.2541 34.2907 97.2541 35.4967Z" fill="#F7F7F2"/>
  <path d="M143.172 39.3112C142.516 39.6783 141.822 39.9928 141.088 40.255C140.354 40.5172 139.606 40.6483 138.846 40.6483C137.221 40.6483 136.002 40.1764 135.189 39.2326C134.376 38.2888 133.97 37.0304 133.97 35.4574V20.8678H131.138V20.5925C132.108 20.5925 132.908 20.4221 133.537 20.0813C134.166 19.7143 134.665 19.2424 135.032 18.6656C135.425 18.0626 135.7 17.381 135.857 16.6207C136.015 15.8342 136.093 15.0215 136.093 14.1826C136.093 13.4485 135.936 12.7931 135.621 12.2163C135.333 11.6133 134.927 11.1021 134.402 10.6826C133.904 10.2632 133.314 9.94857 132.633 9.73884C131.977 9.50289 131.283 9.38491 130.549 9.38491C128.949 9.38491 127.625 9.90924 126.577 10.9579C125.528 12.0066 125.004 13.3305 125.004 14.9297C125.004 15.5851 125.135 16.2406 125.397 16.896C125.685 17.5252 126.026 18.1413 126.419 18.7443C126.813 19.3472 127.219 19.9502 127.638 20.5532C128.084 21.13 128.464 21.6805 128.779 22.2049C129.041 22.4146 129.251 22.6112 129.408 22.7947C129.565 22.952 129.644 23.2142 129.644 23.5812C129.644 24.0007 129.487 24.3677 129.172 24.6823C128.884 24.9707 128.53 25.1149 128.11 25.1149C127.665 25.1149 127.298 24.9707 127.009 24.6823C126.721 24.3939 126.577 24.0269 126.577 23.5812C126.577 23.188 126.721 22.8472 127.009 22.5588C127.298 22.2442 127.638 22.0738 128.032 22.0476C127.14 21.497 126.183 21.1169 125.161 20.9071C124.165 20.6974 123.155 20.5925 122.133 20.5925C121.609 20.5925 121.045 20.6712 120.442 20.8285C119.865 20.9858 119.315 21.2217 118.79 21.5363C118.292 21.8509 117.873 22.2442 117.532 22.7161C117.191 23.1618 117.021 23.6861 117.021 24.2891C117.021 25.128 117.348 25.8096 118.004 26.334C118.659 26.8583 119.485 27.3171 120.481 27.7104C121.478 28.0774 122.552 28.4313 123.706 28.7721C124.86 29.1129 125.934 29.5324 126.931 30.0305C127.927 30.5024 128.753 31.1054 129.408 31.8395C130.064 32.5735 130.391 33.5304 130.391 34.7102C130.391 35.7589 130.155 36.6502 129.683 37.3843C129.211 38.0921 128.595 38.682 127.835 39.1539C127.101 39.5996 126.275 39.9273 125.358 40.137C124.466 40.3468 123.575 40.4516 122.684 40.4516C121.268 40.4516 119.852 40.2288 118.436 39.7831C117.021 39.3374 115.775 38.6165 114.701 37.6202L114.937 37.3843C116.038 38.3019 117.23 38.9835 118.515 39.4292C119.826 39.8749 121.189 40.0977 122.605 40.0977C123.26 40.0977 123.929 40.0191 124.61 39.8618C125.318 39.6783 125.961 39.4161 126.537 39.0753C127.114 38.7082 127.586 38.2494 127.953 37.6989C128.346 37.1483 128.543 36.4929 128.543 35.7326C128.543 34.7364 128.137 33.9106 127.324 33.2552C126.511 32.5998 125.541 32.0492 124.414 31.6035C123.313 31.1316 122.185 30.7384 121.032 30.4238C119.878 30.083 118.961 29.7552 118.279 29.4406C117.414 29.0474 116.693 28.5231 116.116 27.8676C115.566 27.186 115.29 26.3471 115.29 25.3509C115.29 24.4071 115.5 23.6206 115.92 22.9914C116.365 22.3359 116.916 21.8116 117.571 21.4184C118.253 21.0251 119 20.7367 119.813 20.5532C120.652 20.3697 121.464 20.2779 122.251 20.2779C123.247 20.2779 124.23 20.3828 125.2 20.5925C126.197 20.8023 127.114 21.1693 127.953 21.6936C127.638 21.1955 127.298 20.6843 126.931 20.16C126.564 19.6094 126.223 19.0589 125.908 18.5083C125.594 17.9315 125.331 17.3417 125.122 16.7387C124.912 16.1357 124.807 15.5327 124.807 14.9297C124.807 14.0908 124.951 13.3305 125.24 12.6489C125.528 11.941 125.921 11.3381 126.419 10.8399C126.944 10.3156 127.56 9.90925 128.268 9.62086C128.976 9.33248 129.736 9.18829 130.549 9.18829C131.283 9.18829 131.99 9.30626 132.672 9.54221C133.38 9.77816 133.996 10.119 134.52 10.5647C135.045 10.9841 135.464 11.4954 135.779 12.0983C136.12 12.7013 136.29 13.383 136.29 14.1432C136.29 15.2443 136.29 16.3192 136.29 17.3679C136.29 18.4165 136.277 19.4914 136.251 20.5925H141.52V20.8678H136.251C136.251 22.6768 136.238 24.4857 136.211 26.2947C136.211 28.1036 136.211 29.9125 136.211 31.7215V35.8899C136.211 37.0697 136.46 38.079 136.959 38.918C137.457 39.7307 138.361 40.137 139.672 40.137C140.275 40.137 140.865 40.0453 141.442 39.8618C142.018 39.652 142.556 39.3899 143.054 39.0753L143.172 39.3112Z" fill="#F7F7F2"/>
  <path d="M151.155 16.9353C151.155 17.3548 150.997 17.7218 150.683 18.0364C150.394 18.3248 150.04 18.469 149.621 18.469C149.228 18.469 148.874 18.3248 148.559 18.0364C148.244 17.7218 148.087 17.3548 148.087 16.9353C148.087 16.5158 148.231 16.1488 148.52 15.8342C148.834 15.5196 149.201 15.3623 149.621 15.3623C150.067 15.3623 150.434 15.5196 150.722 15.8342C151.01 16.1488 151.155 16.5158 151.155 16.9353ZM150.761 37.3843C150.761 38.1446 150.971 38.8262 151.39 39.4292C151.81 40.006 152.426 40.2943 153.239 40.2943H146.042C146.881 40.2943 147.497 40.006 147.891 39.4292C148.31 38.8262 148.52 38.1446 148.52 37.3843V23.1093C148.52 22.6636 148.389 22.2311 148.126 21.8116C147.891 21.3921 147.51 21.1824 146.986 21.1824L150.761 20.6319V37.3843Z" fill="#F7F7F2"/>
  <path d="M173.152 35.4574C172.89 36.3225 172.47 37.0828 171.894 37.7382C171.317 38.3936 170.648 38.9442 169.888 39.3899C169.128 39.8093 168.302 40.1239 167.41 40.3337C166.545 40.5434 165.693 40.6483 164.854 40.6483C163.36 40.6483 162.01 40.3861 160.804 39.8618C159.598 39.3374 158.562 38.6296 157.697 37.7382C156.858 36.8206 156.203 35.7458 155.731 34.5136C155.285 33.2552 155.062 31.905 155.062 30.4631C155.062 28.995 155.285 27.6448 155.731 26.4126C156.203 25.1542 156.858 24.0662 157.697 23.1487C158.562 22.2311 159.598 21.5101 160.804 20.9858C162.036 20.4614 163.399 20.1993 164.894 20.1993C166.388 20.1993 167.817 20.527 169.18 21.1824C170.57 21.8378 171.671 22.8209 172.483 24.1318C172.693 24.4726 172.798 24.8396 172.798 25.2329C172.798 25.6523 172.641 26.0194 172.326 26.334C172.038 26.6224 171.684 26.7665 171.264 26.7665C170.845 26.7665 170.478 26.6093 170.163 26.2947C169.875 25.9801 169.731 25.6261 169.731 25.2329C169.731 24.8134 169.875 24.4595 170.163 24.1711C170.478 23.8565 170.845 23.6992 171.264 23.6992C171.5 23.6992 171.671 23.7254 171.776 23.7779C170.255 21.864 168.276 20.9071 165.837 20.9071C164.527 20.9071 163.36 21.1693 162.338 21.6936C161.315 22.218 160.45 22.9258 159.742 23.8172C159.034 24.7085 158.497 25.731 158.13 26.8845C157.763 28.0118 157.579 29.1916 157.579 30.4238C157.579 31.6822 157.763 32.8881 158.13 34.0417C158.497 35.169 159.034 36.1783 159.742 37.0697C160.45 37.9348 161.315 38.6296 162.338 39.1539C163.386 39.6782 164.579 39.9404 165.916 39.9404C167.41 39.9404 168.813 39.5472 170.124 38.7607C171.435 37.9742 172.352 36.86 172.877 35.418L173.152 35.4574Z" fill="#F7F7F2"/>
  <path d="M176.296 40.351C176.728 40.351 177.064 40.051 177.064 39.571C177.064 39.103 176.728 38.791 176.296 38.791C175.852 38.791 175.516 39.103 175.516 39.571C175.516 40.051 175.852 40.351 176.296 40.351Z" fill="#92A908"/>
  <path d="M180.843 36.547C179.955 36.343 179.271 36.295 179.271 35.671C179.271 35.239 179.679 34.951 180.435 34.951C181.419 34.951 181.659 35.443 181.743 35.923H182.967C182.883 34.855 182.091 33.955 180.423 33.955C178.887 33.955 177.999 34.759 177.999 35.767C177.999 37.159 179.319 37.351 180.291 37.579C181.191 37.795 181.923 37.855 181.923 38.623C181.923 39.007 181.551 39.439 180.675 39.439C179.379 39.439 179.091 38.875 179.031 38.215H177.807C177.867 39.511 178.719 40.435 180.699 40.435C182.187 40.435 183.195 39.703 183.195 38.527C183.195 37.063 181.971 36.811 180.843 36.547Z" fill="#92A908"/>
  <path d="M186.826 35.155V34.123H185.674V32.191H184.402V34.123H183.514V35.155H184.402V38.587C184.402 39.883 184.954 40.339 185.962 40.339C186.298 40.339 186.574 40.303 186.826 40.243V39.211C186.01 39.259 185.674 39.175 185.674 38.479V35.155H186.826Z" fill="#92A908"/>
  <path d="M190.443 40.435C188.523 40.435 187.359 39.103 187.359 37.195C187.359 35.287 188.523 33.955 190.443 33.955C192.363 33.955 193.527 35.287 193.527 37.195C193.527 39.103 192.363 40.435 190.443 40.435ZM190.443 39.403C191.643 39.403 192.267 38.455 192.267 37.195C192.267 35.923 191.643 34.987 190.443 34.987C189.243 34.987 188.619 35.923 188.619 37.195C188.619 38.455 189.243 39.403 190.443 39.403Z" fill="#92A908"/>
  <path d="M197.314 33.979C196.51 33.979 196.006 34.507 195.682 35.275H195.658V34.123H194.398V40.255H195.658V37.123C195.658 35.815 196.63 34.999 197.842 35.203H197.866V34.015C197.686 33.991 197.53 33.979 197.314 33.979Z" fill="#92A908"/>
  <path d="M201.188 39.403C200.072 39.403 199.412 38.551 199.412 37.519H204.116C204.116 35.335 203.144 33.955 201.164 33.955C199.316 33.955 198.152 35.203 198.152 37.195C198.152 39.115 199.316 40.435 201.224 40.435C202.796 40.435 203.708 39.547 204.02 38.383H202.76C202.652 38.755 202.232 39.403 201.188 39.403ZM201.164 34.951C202.184 34.951 202.856 35.635 202.856 36.583H199.412C199.412 35.635 200.144 34.951 201.164 34.951Z" fill="#92A908"/>
  <path d="M10.2795 10.2795H5.3038C0.695508 10.2795 -1.71197 4.79927 1.40536 1.40536C4.79927 -1.71197 10.2795 0.695508 10.2795 5.3038V10.2795Z" fill="#92A908"/>
</svg>
  