<svg width="146" height="145" viewBox="0 0 146 145" fill="none" xmlns="http://www.w3.org/2000/svg">
  <path d="M41.3181 21.568C39.8083 22.4151 37.9782 22.8731 36.903 22.9875L36.5598 23.0104L36.171 21.0872L36.3082 21.1101L36.4226 21.2246C37.8409 22.6441 40.3344 21.7741 41.5926 21.0414C42.8737 20.3087 44.292 18.6373 43.3084 17.0117C42.3476 15.4777 40.6318 16.3706 39.0076 16.9659L38.5501 17.1262C36.7886 17.7673 34.7069 18.271 33.7918 16.5996C32.5565 14.4016 34.2493 12.4783 36.0337 11.448C37.2461 10.7611 39.122 10.1887 40.1057 10.0742L40.3573 10.0513L40.7691 11.7685L40.609 11.7914L40.5175 11.6769C39.3736 10.4864 37.3376 11.1503 36.2167 11.7456C34.5925 12.6386 33.8604 13.9894 34.501 15.2945C35.3017 16.9201 37.1089 16.1645 38.7789 15.5693L39.122 15.4548C39.488 15.3174 42.828 13.7376 44.0404 15.5006C45.3901 17.5612 44.2005 19.9882 41.3181 21.568Z" fill="#DBCAAC"/>
  <path d="M53.9233 13.2339C53.6488 14.951 52.871 16.1874 51.2696 16.8743C48.7533 17.9962 45.6649 17.172 44.6126 14.1726C43.6518 11.4709 45.0015 8.90652 47.7467 7.94489C49.0278 7.48697 49.9199 7.41829 51.3611 7.55566L51.5213 7.57856L51.6814 9.15838L51.4755 9.22706L51.4298 9.11259C50.5376 8.05937 49.0735 7.73883 47.6781 8.26544C45.1159 9.20417 45.2532 11.5853 46.0081 13.6231C46.7859 15.6837 48.4559 17.2864 50.8807 16.5538C52.4135 16.0958 53.2599 14.8137 53.603 13.1652L53.6259 12.9591L53.9233 12.982V13.2339Z" fill="#DBCAAC"/>
  <path d="M58.2468 6.57115L58.0637 6.47957C57.7664 6.34219 57.5833 6.3193 57.0801 6.50247C56.0049 6.84591 56.0735 9.1126 56.2336 9.79948L57.0343 12.776C57.1944 13.3255 57.3088 13.6231 57.5833 13.8521C57.8579 14.081 58.1324 14.1955 58.4069 14.1955L58.4298 14.31C57.8121 14.4016 57.4461 14.4932 56.8513 14.6305C56.2794 14.7679 55.9362 14.8824 55.3643 15.0884L55.3415 14.974C55.5473 14.8137 55.6846 14.5618 55.7761 14.2642C55.8905 13.9208 55.7532 13.2339 55.7075 13.0965L54.4493 7.83043C54.3349 7.4183 54.1976 7.21224 53.946 7.07486C53.7859 6.96038 53.5342 6.91459 53.4427 6.91459L53.397 6.73143C53.7172 6.59405 53.9003 6.45667 54.2205 6.3193C54.5179 6.15903 54.678 6.02165 54.9526 5.83848L55.1813 5.93007C55.1813 5.99876 55.1585 5.90717 55.2271 6.34219C55.3415 7.00618 55.433 7.37251 55.6389 8.0136H55.799L55.8447 7.76174C56.0506 6.91459 56.3938 6.13613 56.8055 5.7469C57.2631 5.31188 57.6977 5.06002 58.3383 4.89975L58.2468 6.57115Z" fill="#DBCAAC"/>
  <path d="M65.9555 13.211C63.7136 13.4628 60.8312 11.8601 60.4194 9.24996C59.9848 6.52534 61.9522 4.07548 64.9261 3.73204C68.0144 3.36571 70.3706 5.70109 70.4621 8.28833C70.5765 10.8527 68.5634 12.9133 65.9555 13.211ZM64.9032 4.05258C62.4326 4.39602 61.7463 6.73141 62.0437 8.92942C62.3182 11.1045 63.645 13.211 66.0699 12.8904C68.6092 12.547 69.1582 10.4406 68.9523 8.21964C68.7235 6.04453 67.5568 3.70914 64.9032 4.05258Z" fill="#DBCAAC"/>
  <path d="M73.2761 12.5241C72.6356 12.5241 72.2925 12.5012 71.6748 12.547V12.4325C71.9951 12.318 72.1095 12.2493 72.3611 11.8601C72.5441 11.5625 72.6356 10.6924 72.6356 10.555L72.7957 2.12932C72.7957 1.6714 72.7042 1.1219 72.5441 0.915838C72.4068 0.73267 72.1781 0.595295 72.1095 0.549503V0.412127C72.4755 0.343439 72.7042 0.297647 73.0703 0.206064C73.3676 0.137376 73.5278 0.0915838 73.8023 0L73.8938 0.0457919C73.8938 0.137376 73.8938 -0.022896 73.8938 0.435023C73.9167 1.30507 73.9167 2.56435 73.9167 2.70172L73.9853 10.6466C73.9853 10.8985 74.1454 11.8601 74.2141 11.9746C74.42 12.3409 74.5801 12.4096 74.8775 12.5241V12.6386C74.2827 12.547 73.8938 12.5241 73.2761 12.5241Z" fill="#DBCAAC"/>
  <path d="M77.2571 12.6615C76.6394 12.6157 76.2734 12.5928 75.6558 12.5928V12.4783C75.976 12.3867 76.1133 12.318 76.3878 11.9288C76.5937 11.6311 76.7081 10.784 76.7309 10.6237L77.3029 2.22091C77.3257 1.76299 77.2571 1.21348 77.1198 0.984525C77.0055 0.801357 76.7767 0.641086 76.7081 0.595294V0.457918C77.0741 0.412126 77.3257 0.366334 77.6689 0.297646C77.9663 0.251855 78.1264 0.206063 78.4238 0.137375L78.5153 0.183167C78.5153 0.274751 78.5153 0.114479 78.4924 0.572398C78.4695 1.44244 78.4009 2.70172 78.4009 2.8391L78.0578 10.784C78.0578 11.0358 78.1722 11.9975 78.2179 12.1348C78.4238 12.5241 78.561 12.5928 78.8584 12.7301V12.8446C78.2637 12.7301 77.8748 12.7072 77.2571 12.6615Z" fill="#DBCAAC"/>
  <path d="M88.3748 12.7988C89.4271 13.0507 89.0382 14.6305 87.9859 14.3787C86.9336 14.1268 87.3225 12.547 88.3748 12.7988Z" fill="#DBCAAC"/>
  <path d="M101.254 19.3471L100.431 18.9121C99.607 18.477 99.2181 18.1336 98.3946 17.6986C97.7083 17.3322 97.2736 17.1491 96.5645 16.8514L96.6331 16.7369C96.9534 16.7827 97.1592 16.714 97.4795 16.5996C97.9142 16.3935 98.2344 15.8669 98.3031 15.7524L101.986 8.83784C102.032 8.76915 102.284 8.17386 102.215 7.78463C102.169 7.53277 102.055 7.23512 101.986 7.16644L102.055 7.05196L107.133 9.77657C110.473 11.5625 111.503 14.6992 110.084 17.4238C108.163 21.0643 104.342 20.9956 101.254 19.3471ZM105.784 9.38734L103.748 8.28834L99.6985 16.4164C99.1266 17.5612 99.6528 18.042 101.185 18.8434C104.205 20.4232 106.401 20.4003 108.369 16.7598C110.565 12.6386 108.689 10.9672 105.784 9.38734Z" fill="#DBCAAC"/>
  <path d="M111.526 26.2846C109.764 24.865 108.895 21.6825 110.45 19.5532C112.075 17.3323 115.209 17.0117 117.542 18.8892C119.967 20.8353 119.967 24.1552 118.205 26.0327C116.421 27.9331 113.562 27.9331 111.526 26.2846ZM117.29 19.0952C115.3 17.5612 113.15 18.7289 111.823 20.469C110.473 22.1862 109.901 24.6132 111.823 26.1243C113.859 27.6812 115.735 26.5822 117.153 24.8879C118.549 23.2165 119.395 20.7437 117.29 19.0952Z" fill="#DBCAAC"/>
  <path d="M131.451 35.1453C131.085 35.1224 130.056 35.3055 129.392 35.4887L122.529 37.4349L122.438 37.3433L126.007 30.3371L118.663 32.6954L118.549 32.558L121.957 25.3229C122.026 25.1855 122.461 24.3155 122.484 23.9263C122.506 23.7202 122.506 23.4912 122.484 23.4454L122.598 23.331C122.827 23.6744 122.987 23.8576 123.261 24.201C123.673 24.7047 123.925 25.0253 124.382 25.4832L124.268 25.5748C124.222 25.529 124.108 25.4145 123.765 25.4374C123.399 25.4603 122.918 26.3303 122.872 26.399L120.402 31.688L127.928 29.3068L128.02 29.4213L124.405 36.4503L129.209 35.0537C130.056 34.8018 130.605 34.5042 130.696 34.2523C130.833 33.9776 130.811 33.7028 130.696 33.4052L130.811 33.3136C131.108 33.7715 131.337 34.0463 131.68 34.4813C131.909 34.756 132.069 34.9392 132.343 35.1911L132.229 35.2826C132.16 35.2826 131.748 35.1453 131.451 35.1453Z" fill="#DBCAAC"/>
  <path d="M129.712 49.3865C129.415 48.7912 129.232 48.4707 128.888 47.8983L129.003 47.8525C129.277 48.0357 129.506 48.1273 129.826 48.1502C130.032 48.1502 130.81 47.8754 130.924 47.8067L134.379 45.975C135.774 45.2424 136.575 43.8228 135.797 42.1514C134.928 40.2739 132.594 40.3655 130.856 41.2585L128.271 42.6322C127.859 42.8612 127.447 43.0673 127.287 43.3191C127.15 43.5939 127.058 43.8228 127.081 44.1205L126.967 44.1663C126.761 43.7083 126.647 43.4336 126.395 42.9757C126.098 42.4033 125.937 42.0598 125.594 41.5103L125.709 41.4645C125.96 41.6477 126.189 41.7164 126.486 41.7393C126.944 41.808 127.516 41.4874 127.63 41.4187L132.366 38.9689C132.526 38.8773 132.846 38.5568 132.96 38.3278C133.052 38.1675 133.075 37.9157 133.098 37.8241L133.212 37.7783C133.441 38.053 133.578 38.2362 133.807 38.511C133.99 38.717 134.104 38.8315 134.287 39.0147V39.152C134.219 39.1978 134.219 39.1978 133.83 39.4268C133.372 39.7015 132.846 39.9534 132.64 40.1366L132.48 40.2511L132.983 40.2282C133.715 40.1595 135.5 40.4113 136.3 42.1972C137.261 44.3265 136.849 46.1124 134.996 47.1427L131.542 49.0889C131.13 49.3178 130.65 49.6842 130.581 49.8216C130.444 50.1421 130.352 50.3253 130.375 50.6229L130.261 50.6687C130.101 50.1879 129.964 49.8673 129.712 49.3865Z" fill="#DBCAAC"/>
  <path d="M134.493 59.0487C134.745 60.1019 133.166 60.4911 132.915 59.4379C132.663 58.3847 134.242 57.9954 134.493 59.0487Z" fill="#DBCAAC"/>
  <path d="M134.584 73.0609C134.607 71.3208 135.133 69.512 135.568 68.5046L135.705 68.1841L137.558 68.8023L137.467 68.9168L137.33 68.9625C135.385 69.4663 134.905 72.0764 134.905 73.5417C134.905 75.0071 135.66 77.0677 137.535 77.0219C139.343 76.9532 139.411 75.0071 139.732 73.3128L139.823 72.832C140.143 71.0003 140.738 68.9396 142.66 68.9625C145.176 68.9854 146 71.4124 146 73.4731C146 74.8697 145.565 76.793 145.153 77.6859L145.039 77.9149L143.346 77.4112L143.415 77.2738L143.552 77.2509C145.153 76.8617 145.611 74.7552 145.634 73.4731C145.657 71.6185 144.856 70.3134 143.415 70.2218C141.607 70.1073 141.356 72.0535 141.036 73.7936L140.967 74.1599C140.898 74.5492 140.601 78.2354 138.473 78.3957C136.026 78.6017 134.493 76.335 134.584 73.0609Z" fill="#DBCAAC"/>
  <path d="M135.454 88.1723C134.104 87.0733 133.441 85.7911 133.647 84.051C133.944 81.3035 136.209 79.0597 139.32 79.6321C142.134 80.1587 143.667 82.6086 143.14 85.4706C142.889 86.7985 142.5 87.6228 141.676 88.8134L141.585 88.9507L140.121 88.2867L140.166 88.0807L140.281 88.0578C141.631 87.8288 142.637 86.7069 142.912 85.2416C143.392 82.5399 141.265 81.4867 139.114 81.1203C136.941 80.754 134.722 81.3951 134.127 83.8678C133.761 85.4248 134.425 86.7985 135.683 87.9204L135.843 88.0578L135.66 88.3096L135.454 88.1723Z" fill="#DBCAAC"/>
  <path d="M139.046 95.27L139.206 95.1555C139.48 94.9494 139.572 94.8121 139.686 94.2855C139.915 93.1865 137.925 92.1104 137.238 91.9043L134.264 91.1258C133.715 90.9885 133.395 90.9427 133.052 91.0571C132.732 91.1716 132.48 91.3548 132.343 91.5837L132.229 91.5608C132.457 90.9656 132.572 90.6221 132.732 90.0268C132.892 89.4544 132.983 89.111 133.098 88.5157L133.212 88.5386C133.258 88.7904 133.395 89.0423 133.601 89.2713C133.853 89.546 134.493 89.7521 134.631 89.7979L139.801 91.3319C140.212 91.4464 140.464 91.4235 140.716 91.2632C140.899 91.1716 141.059 90.9885 141.105 90.8969L141.288 90.9427C141.242 91.2861 141.265 91.5151 141.242 91.8585C141.242 92.2019 141.265 92.408 141.288 92.7285L141.105 92.9117C141.036 92.8888 141.127 92.9117 140.716 92.7514C140.098 92.5225 139.709 92.408 139.069 92.2706L138.977 92.408L139.16 92.5912C139.778 93.1865 140.281 93.8733 140.418 94.4228C140.555 95.0181 140.578 95.5447 140.372 96.1629L139.046 95.27Z" fill="#DBCAAC"/>
  <path d="M129.415 98.6128C130.33 96.5522 133.144 94.8579 135.614 95.8195C138.199 96.804 139.32 99.7347 138.131 102.482C136.895 105.344 133.693 106.214 131.428 105.001C129.14 103.787 128.363 101.017 129.415 98.6128ZM137.879 102.299C138.84 99.9866 137.147 98.2236 135.111 97.3764C133.098 96.5293 130.604 96.598 129.666 98.8647C128.683 101.246 130.238 102.757 132.252 103.696C134.242 104.589 136.85 104.772 137.879 102.299Z" fill="#DBCAAC"/>
  <path d="M126.326 105.321C126.646 104.772 126.829 104.474 127.104 103.925L127.195 103.993C127.15 104.314 127.127 104.474 127.355 104.886C127.539 105.184 128.248 105.688 128.362 105.779L135.614 110.061C136.003 110.29 136.529 110.473 136.803 110.45C137.032 110.427 137.261 110.29 137.352 110.267L137.49 110.336C137.375 110.679 137.307 110.931 137.192 111.274C137.101 111.572 137.078 111.732 137.009 112.007L136.918 112.076C136.849 112.03 136.964 112.099 136.598 111.892C135.82 111.48 134.745 110.862 134.63 110.793L127.699 106.947C127.47 106.832 126.578 106.512 126.418 106.489C125.983 106.489 125.846 106.604 125.617 106.787L125.525 106.718C125.823 106.168 126.029 105.848 126.326 105.321Z" fill="#DBCAAC"/>
  <path d="M124.222 108.664C124.565 108.138 124.771 107.84 125.091 107.313L125.182 107.382C125.114 107.702 125.091 107.863 125.274 108.275C125.434 108.595 126.097 109.145 126.235 109.214L133.189 113.953C133.555 114.205 134.081 114.434 134.333 114.411C134.562 114.411 134.813 114.297 134.882 114.251L134.996 114.342C134.859 114.686 134.768 114.915 134.653 115.258C134.539 115.533 134.516 115.716 134.424 115.991L134.333 116.06C134.264 116.014 134.379 116.082 134.013 115.853C133.258 115.396 132.228 114.709 132.114 114.64L125.434 110.336C125.228 110.198 124.336 109.809 124.199 109.786C123.764 109.763 123.627 109.855 123.375 110.038L123.284 109.969C123.673 109.488 123.878 109.168 124.222 108.664Z" fill="#DBCAAC"/>
  <path d="M118.503 118.189C117.748 118.967 116.581 117.845 117.336 117.067C118.091 116.288 119.258 117.41 118.503 118.189Z" fill="#DBCAAC"/>
  <path d="M106.378 126.065L107.179 125.561C107.957 125.081 108.483 124.897 109.238 124.394C109.901 123.982 110.267 123.707 110.885 123.226L110.953 123.34C110.77 123.592 110.702 123.821 110.656 124.142C110.61 124.623 110.908 125.149 110.976 125.287L115.117 131.926C115.163 131.995 115.529 132.522 115.918 132.659C116.169 132.751 116.489 132.796 116.558 132.774L116.627 132.888L111.731 135.933C108.529 137.925 105.28 137.238 103.633 134.651C101.437 131.194 103.404 127.92 106.378 126.065ZM112.715 134.972L114.682 133.758L109.695 126.202C109.009 125.126 108.323 125.355 106.859 126.271C103.976 128.08 102.878 130.003 105.051 133.552C107.499 137.49 109.901 136.712 112.715 134.972Z" fill="#DBCAAC"/>
  <path d="M95.2146 131.468C97.3192 130.667 100.499 131.491 101.551 133.918C102.649 136.437 101.368 139.322 98.5774 140.398C95.695 141.52 92.8126 139.871 92.0805 137.376C91.3485 134.903 92.7668 132.407 95.2146 131.468ZM98.5545 140.077C100.865 139.116 100.934 136.689 100.11 134.651C99.3095 132.613 97.5022 130.896 95.2375 131.812C92.8583 132.774 92.8583 134.972 93.6132 137.055C94.3453 139.093 96.061 141.085 98.5545 140.077Z" fill="#DBCAAC"/>
  <path d="M77.5546 144.244C77.7604 143.924 78.1265 142.962 78.2866 142.298L80.0709 135.384L80.2082 135.361L84.4403 141.978L86.1103 134.399L86.2933 134.376L90.8228 140.97C90.8914 141.085 91.4405 141.909 91.7607 142.138C91.9209 142.252 92.1268 142.367 92.1954 142.39L92.2411 142.527C91.8294 142.55 91.5777 142.596 91.166 142.665C90.5254 142.779 90.1137 142.825 89.496 142.985L89.4731 142.848C89.5189 142.825 89.679 142.779 89.8391 142.481C89.9993 142.161 89.496 141.291 89.4502 141.222L86.1332 136.414L84.3946 144.107L84.2573 144.13L79.9794 137.513L78.767 142.367C78.5611 143.237 78.5382 143.855 78.6984 144.061C78.8814 144.313 79.1101 144.428 79.4304 144.473L79.4533 144.611C78.9043 144.634 78.5611 144.702 78.0121 144.794C77.6461 144.863 77.4173 144.908 77.0741 145L77.0513 144.863C77.0741 144.794 77.3944 144.519 77.5546 144.244Z" fill="#DBCAAC"/>
  <path d="M66.1389 135.567C66.8023 135.613 67.1683 135.613 67.8317 135.59V135.704C67.5344 135.842 67.3285 136.002 67.1683 136.254C67.0539 136.414 66.9167 137.238 66.9167 137.376L66.7566 141.291C66.6879 142.871 67.5115 144.29 69.3416 144.45C71.4004 144.657 72.4985 142.573 72.59 140.627L72.7044 137.696C72.7044 137.238 72.7502 136.757 72.59 136.506C72.4299 136.254 72.2698 136.071 71.9952 135.933V135.819C72.4985 135.865 72.7959 135.91 73.2992 135.933C73.9397 135.956 74.3286 135.979 74.9692 135.979V136.093C74.6946 136.208 74.5116 136.368 74.3286 136.62C74.0541 136.986 74.0312 137.628 74.0312 137.788L73.7796 143.123C73.7796 143.306 73.894 143.741 74.0541 143.947C74.1456 144.107 74.3515 144.244 74.4201 144.313L74.3973 144.45C74.0312 144.496 73.8253 144.542 73.4593 144.611C73.1848 144.679 73.0247 144.702 72.773 144.771L72.6586 144.702C72.6586 144.634 72.6587 144.611 72.6358 144.176C72.6358 143.649 72.6815 143.054 72.6129 142.779L72.59 142.596L72.3613 143.031C72.041 143.695 70.92 145.114 68.9984 144.908C66.665 144.657 65.3382 143.397 65.384 141.291L65.4297 137.33C65.4297 136.872 65.3611 136.254 65.2696 136.139C65.0637 135.842 64.9493 135.704 64.6748 135.567V135.452C65.2467 135.521 65.5899 135.544 66.1389 135.567Z" fill="#DBCAAC"/>
  <path d="M55.3869 134.88C54.3575 134.582 54.815 133.025 55.8444 133.323C56.8739 133.621 56.4163 135.178 55.3869 134.88Z" fill="#DBCAAC"/>
  <path d="M43.2168 127.897C44.7038 128.79 45.9848 130.163 46.6254 131.056L46.8313 131.331L45.3672 132.613L45.3214 132.476L45.3443 132.316C45.8933 130.392 43.9031 128.652 42.6449 127.897C41.3867 127.141 39.2135 126.752 38.2984 128.4C37.4291 130.003 39.0762 131.056 40.3801 132.178L40.7462 132.476C42.1645 133.689 43.6286 135.246 42.6449 136.895C41.341 139.047 38.8246 138.543 37.0631 137.49C35.8506 136.78 34.4323 135.43 33.8604 134.628L33.7231 134.399L35.0042 133.186L35.0957 133.323L35.05 133.46C34.5696 135.04 36.148 136.506 37.2461 137.17C38.8246 138.131 40.3573 138.108 41.1579 136.895C42.1874 135.384 40.6318 134.193 39.2821 133.025L39.0076 132.774C38.7102 132.522 35.6676 130.392 36.6284 128.469C37.7265 126.34 40.4259 126.18 43.2168 127.897Z" fill="#DBCAAC"/>
  <path d="M29.7654 121.051C31.3896 120.433 32.8308 120.501 34.2263 121.555C36.4453 123.203 37.2459 126.271 35.1642 128.675C33.2883 130.85 30.4059 130.919 28.2098 129.042C27.1804 128.149 26.6771 127.393 26.0823 126.088L26.0137 125.928L27.3176 124.989L27.4778 125.126L27.432 125.218C26.9516 126.5 27.3863 127.943 28.5301 128.904C30.6118 130.667 32.6021 129.385 33.9975 127.691C35.393 125.996 35.9649 123.753 34.1348 121.99C32.9681 120.891 31.4582 120.776 29.834 121.28L29.651 121.348L29.5137 121.074L29.7654 121.051Z" fill="#DBCAAC"/>
  <path d="M21.8043 120.593L21.8272 120.799C21.873 121.142 21.9416 121.28 22.3305 121.646C23.154 122.402 25.0985 121.234 25.6018 120.73L27.7751 118.555C28.1868 118.143 28.3698 117.891 28.4385 117.525C28.5071 117.181 28.4614 116.884 28.347 116.632L28.4385 116.54C28.8274 117.044 29.079 117.319 29.5137 117.754C29.9254 118.189 30.1771 118.441 30.6346 118.83L30.5431 118.922C30.2915 118.83 30.0169 118.83 29.6967 118.899C29.3535 118.967 28.8274 119.425 28.713 119.54L24.7783 123.249C24.4809 123.547 24.3665 123.775 24.3665 124.073C24.3436 124.279 24.4351 124.531 24.4809 124.6L24.3436 124.737C24.0691 124.531 23.8632 124.417 23.5658 124.233C23.2684 124.073 23.0854 123.982 22.788 123.821L22.7651 123.592C22.8338 123.547 22.7651 123.615 23.1083 123.34C23.6344 122.928 23.909 122.654 24.3436 122.173L24.275 122.035L24.0233 122.104C23.1998 122.333 22.3534 122.425 21.8043 122.264C21.2096 122.081 20.7749 121.829 20.3174 121.348L21.8043 120.593Z" fill="#DBCAAC"/>
  <path d="M23.7494 110.587C25.0762 112.396 25.1219 115.693 23.0631 117.365C20.9127 119.105 17.8244 118.601 16.04 116.197C14.187 113.701 15.0335 110.496 17.2296 109.122C19.4257 107.748 22.2166 108.481 23.7494 110.587ZM16.3374 116.06C17.8701 118.052 20.2493 117.456 21.9879 116.128C23.7265 114.823 24.916 112.625 23.4291 110.679C21.8735 108.641 19.7689 109.214 17.9616 110.496C16.1773 111.755 14.7132 113.93 16.3374 116.06Z" fill="#DBCAAC"/>
  <path d="M19.5168 104.543C19.8371 105.092 19.9972 105.39 20.3404 105.917L20.2489 105.985C19.9972 105.779 19.86 105.688 19.4024 105.665C19.0593 105.665 18.2586 106.031 18.1442 106.1L10.8009 110.244C10.412 110.473 9.97739 110.839 9.86301 111.068C9.7715 111.274 9.7715 111.549 9.7715 111.641L9.63425 111.709C9.38261 111.435 9.22247 111.251 8.97083 111C8.76495 110.771 8.62769 110.679 8.4218 110.473L8.39893 110.358C8.46755 110.313 8.35317 110.381 8.71919 110.175C9.47411 109.717 10.5264 109.076 10.6637 109.008L17.4808 104.932C17.6867 104.795 18.4416 104.177 18.5103 104.062C18.7161 103.696 18.7161 103.513 18.6475 103.215L18.739 103.146C19.0135 103.673 19.2194 104.016 19.5168 104.543Z" fill="#DBCAAC"/>
  <path d="M17.687 101.04C17.9615 101.612 18.1216 101.933 18.419 102.459L18.3046 102.505C18.0759 102.276 17.9386 102.185 17.4811 102.139C17.1379 102.116 16.3144 102.414 16.1771 102.482L8.58219 106.146C8.17041 106.352 7.71289 106.672 7.59851 106.901C7.507 107.107 7.46125 107.382 7.46125 107.451L7.32399 107.519C7.09523 107.222 6.93509 107.039 6.70633 106.764C6.52332 106.535 6.38606 106.42 6.18018 106.191V106.077C6.2488 106.031 6.13442 106.1 6.52332 105.917C7.30112 105.505 8.39918 104.932 8.53644 104.886L15.6052 101.246C15.834 101.131 16.6118 100.559 16.7033 100.445C16.932 100.078 16.932 99.9179 16.9092 99.5974L17.0235 99.5516C17.2523 100.147 17.4124 100.49 17.687 101.04Z" fill="#DBCAAC"/>
  <path d="M12.3111 91.309C12.0137 90.2558 13.5921 89.8208 13.8666 90.874C14.1869 91.9272 12.6084 92.3622 12.3111 91.309Z" fill="#DBCAAC"/>
  <path d="M11.6247 76.8617L11.6476 77.8004C11.6705 78.7163 11.579 79.2429 11.6018 80.1816C11.6247 80.9601 11.6705 81.418 11.762 82.1964H11.6247C11.5103 81.8988 11.3502 81.7385 11.0986 81.5324C10.7097 81.2577 10.092 81.2348 9.95475 81.2348L2.13105 81.4638C2.06242 81.4638 1.42189 81.5325 1.10162 81.8072C0.89573 81.9675 0.712719 82.2193 0.666967 82.3109H0.529709L0.415327 76.5411C0.323822 72.7633 2.54282 70.3134 5.58537 70.1761C9.70311 69.9929 11.5332 73.3586 11.6247 76.8617ZM0.758472 77.8462L0.827101 80.1587L9.86325 79.6779C11.1443 79.6092 11.2816 78.9223 11.2358 77.1822C11.1214 73.7936 10.0005 71.8704 5.85989 71.9619C1.216 72.0764 0.666967 74.5263 0.758472 77.8462Z" fill="#DBCAAC"/>
  <path d="M12.5852 64.4979C12.2191 66.7188 9.90864 69.0771 7.27787 68.7565C4.53271 68.4589 2.7026 65.8717 3.18301 62.9181C3.66341 59.85 6.54582 58.2015 9.06222 58.7968C11.5557 59.415 12.9969 61.9107 12.5852 64.4979ZM3.45752 63.0555C3.11438 65.5282 5.19612 66.8333 7.36937 67.1309C9.51974 67.4515 11.9218 66.7417 12.2649 64.3376C12.608 61.7962 10.7322 60.6972 8.55894 60.3079C6.40857 59.9187 3.84642 60.3995 3.45752 63.0555Z" fill="#DBCAAC"/>
  <path d="M10.3894 42.7696C10.5495 43.113 11.2129 43.8915 11.6933 44.3952L16.7719 49.4094L16.7261 49.5239L8.87956 49.8673L14.5986 55.1334L14.53 55.2937L6.54617 55.9119C6.40891 55.9119 5.42523 55.9806 5.05921 56.1408C4.8762 56.2095 4.67032 56.3469 4.62456 56.3927L4.4873 56.3469C4.67032 55.9806 4.76182 55.7516 4.92195 55.3395C5.15072 54.7213 5.31085 54.3549 5.49386 53.7368L5.63112 53.7826C5.63112 53.8512 5.58537 53.9886 5.76838 54.2863C5.97426 54.6068 6.95795 54.5839 7.04945 54.5839L12.8829 54.126L7.0952 48.7683L7.14096 48.631L15.0104 48.2417L11.4188 44.7616C10.7783 44.1434 10.2521 43.8228 10.0005 43.8457C9.7031 43.8686 9.47434 44.0289 9.26845 44.2807L9.1312 44.2349C9.38283 43.7312 9.49722 43.4107 9.7031 42.907C9.84036 42.5635 9.90899 42.3346 10.0005 41.9911L10.1378 42.0369C10.1606 42.0827 10.2521 42.4949 10.3894 42.7696Z" fill="#DBCAAC"/>
  <path d="M23.6345 37.2746C23.2685 37.8241 23.0854 38.1446 22.7423 38.717L22.6508 38.6483C22.6965 38.3278 22.6508 38.0759 22.5135 37.7783C22.422 37.5951 21.7815 37.0685 21.6671 36.9998L18.3729 34.8934C17.0461 34.0463 15.4219 34.0463 14.3467 35.5345C13.1342 37.2059 14.3696 39.2207 16.0167 40.274L18.4873 41.8538C18.8762 42.1056 19.288 42.3575 19.5854 42.3575C19.8828 42.3575 20.1344 42.2888 20.386 42.1285L20.4775 42.1972C20.1802 42.5864 19.9971 42.8383 19.7226 43.2733C19.3795 43.8228 19.1507 44.1205 18.8533 44.6929L18.7618 44.6242C18.8076 44.3265 18.7389 44.0976 18.6246 43.8228C18.4416 43.3878 17.8925 43.0673 17.7781 42.9757L13.3173 40.0679C13.18 39.9763 12.7225 39.8618 12.4708 39.8847C12.2878 39.8847 12.0591 39.9763 11.9904 40.0221L11.8989 39.9305C12.0362 39.5871 12.1048 39.381 12.2421 39.0376C12.3336 38.7857 12.3793 38.6254 12.448 38.3507L12.5623 38.282C12.631 38.3049 12.6538 38.3278 13.0199 38.5339C13.4774 38.8086 13.9578 39.1292 14.2323 39.2207L14.4153 39.2894L14.1408 38.8773C13.729 38.282 13.0656 36.5877 14.2094 35.0308C15.6049 33.1304 17.3435 32.6267 19.1507 33.7257L22.5364 35.7634C22.9253 36.0153 23.4972 36.2443 23.6574 36.2214C24.0005 36.1985 24.2064 36.1527 24.458 35.9924L24.5495 36.0611C24.1378 36.5419 23.9319 36.8167 23.6345 37.2746Z" fill="#DBCAAC"/>
  <path d="M29.6744 28.3223C30.4522 27.5667 31.5731 28.7573 30.7953 29.5129C29.9946 30.2455 28.8737 29.0549 29.6744 28.3223Z" fill="#DBCAAC"/>
  </svg>
  